HIERARCHY
ROOT hip
{
	OFFSET 0.000000 0.000000 0.000000 
	CHANNELS 6 Xposition Yposition Zposition Xrotation Zrotation Yrotation
	JOINT abdomen
	{
		OFFSET 0.000000 3.402643 0.000000 
		CHANNELS 3 Xrotation Zrotation Yrotation
		JOINT chest
		{
			OFFSET 0.000000 8.438565 -0.680529 
			CHANNELS 3 Xrotation Zrotation Yrotation
			JOINT neck
			{
				OFFSET 0.000000 10.207942 -0.272212 
				CHANNELS 3 Xrotation Zrotation Yrotation
				JOINT head
				{
					OFFSET 0.000000 3.130431 0.000000 
					CHANNELS 3 Xrotation Zrotation Yrotation
					End Site
					{
						OFFSET 0.000000 3.130435 0.000000 
					}
				}
			}
			JOINT lCollar
			{
				OFFSET 3.470700 6.669187 -0.816635 
				CHANNELS 3 Yrotation Zrotation Xrotation
				JOINT lShldr
				{
					OFFSET 3.198488 0.000000 0.000000 
					CHANNELS 3 Zrotation Yrotation Xrotation
					JOINT lForeArm
					{
						OFFSET 10.139888 0.000000 0.000000 
						CHANNELS 3 Yrotation Zrotation Xrotation
						JOINT lHand
						{
							OFFSET 8.370511 0.000000 0.000000 
							CHANNELS 3 Zrotation Yrotation Xrotation
							End Site
							{
								OFFSET 4.083176 0.000000 0.000000 
							}
						}
					}
				}
			}
			JOINT rCollar
			{
				OFFSET -3.470700 6.669187 -0.816635 
				CHANNELS 3 Yrotation Zrotation Xrotation
				JOINT rShldr
				{
					OFFSET -3.198488 0.000000 0.000000 
					CHANNELS 3 Zrotation Yrotation Xrotation
					JOINT rForeArm
					{
						OFFSET -10.139888 0.000000 0.000000 
						CHANNELS 3 Yrotation Zrotation Xrotation
						JOINT rHand
						{
							OFFSET -8.370511 0.000000 0.000000 
							CHANNELS 3 Zrotation Yrotation Xrotation
							End Site
							{
								OFFSET -4.083176 0.000000 0.000000 
							}
						}
					}
				}
			}
		}
	}
	JOINT lThigh
	{
		OFFSET 5.308129 -1.633274 1.361059 
		CHANNELS 3 Xrotation Zrotation Yrotation
		JOINT lShin
		{
			OFFSET -2.041588 -20.007561 0.000000 
			CHANNELS 3 Xrotation Zrotation Yrotation
			JOINT lFoot
			{
				OFFSET 0.000000 -19.190928 -1.224953 
				CHANNELS 3 Xrotation Yrotation Zrotation
				End Site
				{
					OFFSET 0.000000 -2.449906 4.627600 
				}
			}
		}
	}
	JOINT rThigh
	{
		OFFSET -5.308129 -1.633274 1.361059 
		CHANNELS 3 Xrotation Zrotation Yrotation
		JOINT rShin
		{
			OFFSET 2.041588 -20.007561 0.000000 
			CHANNELS 3 Xrotation Zrotation Yrotation
			JOINT rFoot
			{
				OFFSET 0.000000 -19.190928 -1.224953 
				CHANNELS 3 Xrotation Yrotation Zrotation
				End Site
				{
					OFFSET 0.000000 -2.449906 4.627600 
				}
			}
		}
	}
}
MOTION
Frames: 11
Frame Time: 0.011111
21.881382 48.819275 4.921623 -3.312238 6.214656 -99.702782 52.237366 -3.098284 -1.928117 -27.897913 2.544498 -0.425017 -21.383600 -18.057816 -7.300339 29.438601 15.156348 -17.776237 3.554561 -11.856053 1.830316 -56.684471 -48.920586 53.267361 -76.262154 7.902710 20.299768 8.524705 12.647240 -29.524794 1.017460 16.414410 0.108193 55.760376 42.670212 30.415970 78.563271 -7.116385 21.615286 -8.534408 -12.637552 72.357277 -32.164772 20.035936 13.310865 59.975216 -2.749169 -8.128885 -28.754423 -4.756767 -4.390320 -31.604610 -27.542847 -2.105342 46.462044 4.111245 6.792170 -16.085886 -0.024447 2.944078 
21.842882 48.835590 4.974154 -3.542955 6.129142 -99.940956 51.860241 -3.283861 -1.040901 -26.201803 0.842286 -0.113634 -21.375422 -18.784397 -7.624445 28.627790 18.113209 -18.006401 3.554561 -11.856053 1.830316 -55.556767 -50.758625 55.155193 -76.182777 7.928242 20.270481 8.524705 12.647240 -29.925182 1.017460 16.414410 0.108193 56.732941 44.128155 29.165581 78.351723 -7.200452 21.502420 -8.534408 -12.637552 72.386574 -31.785620 19.734999 13.549481 59.867508 -2.757624 -8.124941 -28.892950 -4.663841 -4.322176 -31.697193 -27.820423 -1.927850 46.342773 4.130733 6.799637 -17.077389 0.252539 2.976787 
21.812864 48.814709 5.014939 -3.524992 5.850136 -100.166710 51.854630 -3.306248 -0.885409 -25.029562 0.609251 -0.097821 -20.720491 -19.971264 -7.581351 26.814421 21.277781 -17.636429 3.554561 -11.856053 1.830316 -55.524204 -51.805305 55.647724 -76.182838 7.927603 20.260736 8.524705 12.647240 -30.765022 1.017460 16.414410 0.108193 56.856205 45.080292 29.122616 78.342041 -7.203770 21.491491 -8.534408 -12.637552 72.572128 -31.313242 19.721363 13.771261 59.896366 -2.749286 -8.141953 -29.037975 -4.739915 -4.374026 -31.443390 -27.820498 -1.809842 46.244411 4.140404 6.785487 -18.158052 0.499245 2.999146 
21.768816 48.803936 5.063229 -3.445803 5.828025 -100.484550 51.704903 -3.304210 -0.727532 -24.892817 0.582453 -0.064967 -20.195843 -21.009636 -7.474032 26.469103 23.560621 -17.171843 3.554561 -11.856053 1.830316 -55.828800 -51.768021 55.867512 -76.223175 7.916360 20.284948 8.524705 12.647240 -31.712292 1.017460 16.414410 0.108193 56.865528 44.933952 29.256462 78.457123 -7.157784 21.554693 -8.534408 -12.637552 72.884628 -31.206018 19.848377 13.921540 59.955242 -2.739495 -8.141273 -29.172714 -4.725850 -4.338360 -31.508162 -27.670914 -1.585573 46.176750 4.130634 6.766064 -19.180332 0.727594 3.026163 
21.774035 48.807205 5.086721 -3.443725 5.815343 -100.587555 51.724781 -3.324902 -0.718821 -24.843987 0.582508 -0.064471 -20.131708 -21.105703 -7.534810 26.192244 23.876139 -17.280714 3.554561 -11.856053 1.830316 -56.179558 -51.807655 55.959160 -76.282913 7.898495 20.321453 8.524705 12.647240 -32.239632 1.017460 16.414410 0.108193 56.887238 44.895542 29.422274 78.466766 -7.154398 21.564409 -8.534408 -12.637552 73.431503 -31.194380 19.846428 13.932154 60.004337 -2.729690 -8.139795 -29.270519 -4.625608 -4.285108 -31.545778 -27.630638 -1.459824 46.156487 4.140455 6.768321 -20.776707 1.018166 3.051096 
21.786760 48.793499 5.098793 -3.448854 5.783162 -100.667274 51.795078 -3.328372 -0.778714 -24.892857 0.630416 -0.078347 -20.000053 -21.229315 -7.604565 25.946379 24.266514 -17.372786 3.554561 -11.856053 1.830316 -56.584103 -51.738255 55.808022 -76.382774 7.868227 20.372456 8.524705 12.647240 -32.229870 1.017460 16.414410 0.108193 56.893425 44.797985 29.666407 78.466812 -7.153758 21.555882 -8.534408 -12.637552 74.027199 -31.178638 19.850468 13.944588 60.062424 -2.738269 -8.158804 -29.342257 -4.556226 -4.251639 -31.625221 -27.602522 -1.344400 46.206161 4.130683 6.768593 -22.410143 1.341063 3.072722 
21.792635 48.773918 5.108255 -3.522046 5.732479 -100.822067 51.822876 -3.427786 -0.940671 -24.912497 0.746516 -0.097080 -19.838165 -21.251619 -7.670760 25.729507 24.400202 -17.482626 3.554561 -11.856053 1.830316 -57.038849 -51.657616 55.337833 -76.454010 7.848674 20.409760 8.524705 12.647240 -31.897840 1.017460 16.414410 0.108193 56.861736 44.689449 29.771334 78.486137 -7.146329 21.566788 -8.534408 -12.637552 74.056496 -31.098312 19.828590 14.054661 60.111595 -2.739570 -8.153792 -29.420023 -4.627225 -4.284089 -31.832865 -27.614542 -1.108036 46.304192 4.121022 6.792399 -22.419701 1.348503 3.066309 
21.800465 48.754997 5.117392 -3.651387 5.677647 -100.932465 51.839981 -3.531737 -1.115762 -24.853933 0.783405 -0.128420 -19.724220 -21.271338 -7.753264 25.584677 24.609442 -17.586428 3.554561 -11.856053 1.830316 -57.500965 -51.684170 54.697350 -76.531357 7.821040 20.449211 8.524705 12.647240 -31.184946 1.017460 16.414410 0.108193 56.866035 44.621155 29.768423 78.544014 -7.123905 21.603155 -8.534408 -12.637552 74.173691 -31.021261 19.712599 14.137297 60.131512 -2.738145 -8.144957 -29.487341 -4.585892 -4.259007 -31.979597 -27.731958 -0.954907 46.363663 4.111277 6.793497 -22.375891 1.389813 3.091141 
21.812864 48.743252 5.113802 -3.602123 5.711871 -100.925743 51.886604 -3.455015 -1.156216 -25.293413 0.771868 -0.143361 -19.653997 -21.299082 -7.796600 25.918386 24.725254 -17.559462 3.554561 -11.856053 1.830316 -58.012669 -51.259567 53.989017 -76.711456 7.766640 20.549875 8.524705 12.647240 -29.544325 1.017460 16.414410 0.108193 56.942146 44.017509 29.690798 78.715637 -7.053473 21.702818 -8.534408 -12.637552 74.271339 -31.131954 19.803938 14.106310 60.170155 -2.728571 -8.162059 -29.418409 -4.520202 -4.230985 -31.990068 -27.654423 -0.971608 46.441460 4.121067 6.804115 -22.395653 1.393691 3.082768 
21.764574 48.761196 5.124896 -3.451982 5.563491 -101.135658 52.246277 -3.409525 -1.072722 -26.670574 0.822936 -0.108750 -19.191229 -21.331699 -7.788523 26.611095 24.621836 -17.309183 3.554561 -11.856053 1.830316 -58.627331 -49.815300 53.181107 -77.135841 7.627347 20.787052 8.524705 12.647240 -26.487682 1.017460 16.414410 0.108193 56.979240 42.435154 29.777790 78.982040 -6.942584 21.861847 -8.534408 -12.637552 74.495949 -30.814898 19.964895 14.234109 60.180134 -2.719924 -8.158061 -29.521471 -4.508849 -4.205802 -31.743500 -27.466845 -0.913914 46.402580 4.120989 6.791078 -22.395279 1.493356 3.122341 
21.822327 48.750103 5.108581 -3.389885 5.702604 -100.932259 52.190735 -3.193540 -1.150795 -26.719427 0.837072 -0.160079 -19.107656 -21.411943 -7.821513 26.468134 24.867809 -17.341036 3.554561 -11.856053 1.830316 -59.176491 -49.799789 52.144203 -77.531036 7.495542 21.011412 8.524705 12.647240 -22.503307 1.017460 16.414410 0.108193 56.979813 42.425400 29.621536 79.050537 -6.917072 21.908787 -8.534408 -12.637552 75.062355 -31.171310 20.038540 14.003344 60.190037 -2.728384 -8.153883 -29.377647 -4.526084 -4.232713 -31.838890 -27.396574 -1.048521 46.402889 4.111132 6.796772 -22.403301 1.407904 3.103139 
